Coordinates
version=1
nRows=16
nColumns=36
inDegrees=yes

Units are S.I. units (second, meters, Newtons, ...)
If the header above contains a line with 'inDegrees', this indicates whether rotational values are in degrees (yes) or radians (no).

endheader
time	pelvis_tilt	pelvis_list	pelvis_rotation	pelvis_tx	pelvis_ty	pelvis_tz	hip_flexion_r	hip_adduction_r	hip_rotation_r	knee_angle_r	knee_angle_r_beta	ankle_angle_r	subtalar_angle_r	mtp_angle_r	hip_flexion_l	hip_adduction_l	hip_rotation_l	knee_angle_l	knee_angle_l_beta	ankle_angle_l	subtalar_angle_l	mtp_angle_l	lumbar_extension	lumbar_bending	lumbar_rotation	arm_flex_r	arm_add_r	arm_rot_r	elbow_flex_r	pro_sup_r	arm_flex_l	arm_add_l	arm_rot_l	elbow_flex_l	pro_sup_l
      6.00000000	    -16.54332538	     16.98989068	     10.87972212	      1.30940135	      0.77193230	     -0.03618468	     89.74808158	    -22.24639283	     15.80714078	     39.43470578	      0.68826546	     -8.64008848	      3.89028359	     -7.49999987	     68.29640322	     21.26684321	    -15.93611487	     74.96241779	      1.30834101	     27.51787281	     -5.57017472	     -7.49999987	    -40.75409516	    -15.89111662	    -19.78478570	     70.97756010	     -1.91267548	     61.54916201	    124.90702010	     70.67990351	     88.77535158	    -15.58369904	     81.95208695	    130.58099134	     64.20409598
      6.01666670	    -17.22749057	     17.34375822	     11.39283710	      1.30930913	      0.76516647	     -0.03589597	     91.32321077	    -22.59785207	     16.35128703	     40.03436417	      0.69873147	     -8.73404471	      4.31194534	     -7.49999987	     69.78366236	     21.50263413	    -16.57418460	     76.02988583	      1.32697184	     27.44527874	     -5.49791481	     -7.49999987	    -40.85148522	    -15.72150926	    -20.53862694	     70.61687318	     -2.20010566	     61.14218010	    122.95612634	     69.63061481	     89.15714090	    -17.46498998	     83.22911822	    129.64896579	     63.55376810
      6.03333330	    -17.71566258	     17.60074550	     11.80592327	      1.30874042	      0.76188470	     -0.03571783	     92.46294799	    -22.94205533	     16.76241550	     40.43045120	      0.70564449	     -8.80411261	      4.84712821	     -7.49999987	     70.95486763	     21.68596697	    -17.01634919	     76.94765735	      1.34298997	     27.29130730	     -5.43923254	     -7.49999987	    -41.09947043	    -15.35675029	    -20.80457431	     71.11059896	     -2.12887359	     63.84498786	    123.10191499	     68.91056024	     88.98381368	    -17.55009661	     85.36147066	    131.59288004	     62.70747786
      6.05000000	    -17.93490043	     17.73899984	     12.08097554	      1.30870272	      0.75917802	     -0.03500690	     93.10840861	    -23.27930165	     16.88591703	     40.52985856	      0.70737948	     -8.89012316	      5.56774160	     -7.49999987	     71.75513223	     21.76894971	    -17.29017448	     77.71256311	      1.35634010	     27.08522123	     -5.42285674	     -7.49999987	    -41.57491553	    -14.94141410	    -21.11489728	     71.04764097	     -1.99805689	     63.96326550	    122.27038257	     68.27782760	     88.90975429	    -17.69442568	     85.18530800	    130.30887900	     62.35489678
      6.06666670	    -18.09979274	     17.85977723	     12.24118670	      1.30790601	      0.75029615	     -0.03480483	     93.65320593	    -23.50225462	     17.00198124	     40.68084747	      0.71001473	     -8.70649490	      6.38913867	     -7.49999987	     72.46626328	     21.72857477	    -17.56276677	     78.49812015	      1.37005065	     27.04860612	     -5.30715980	     -7.49999987	    -41.87935363	    -14.72577528	    -21.16499393	     71.33907547	     -1.73507573	     64.55327476	    123.17440123	     67.64432921	     89.12520427	    -17.19286599	     84.40086951	    130.14528689	     62.12016038
      6.08333330	    -18.42089868	     17.93057332	     12.32984610	      1.30850518	      0.74324913	     -0.03328288	     94.33754587	    -23.51585827	     17.19852234	     40.89089703	      0.71368079	     -8.67218922	      6.69550787	     -7.49999987	     73.29785280	     21.60219491	    -17.80356755	     79.34321306	      1.38480031	     27.06960078	     -5.33965788	     -7.49999987	    -41.58580244	    -14.74395200	    -21.27807173	     70.88420158	     -1.08938480	     65.46356126	    123.45925855	     67.25778991	     88.80787552	    -16.96776460	     82.78005301	    130.13897230	     61.68771803
      6.10000000	    -18.49098426	     18.13018757	     12.25468129	      1.31224533	      0.73679194	     -0.03583087	     94.75733517	    -23.42716158	     17.48989198	     41.11174612	      0.71753533	     -8.60659743	      6.95145672	     -7.49999987	     73.77646578	     21.51299795	    -18.12642196	     80.14852061	      1.39885558	     27.33781954	     -5.20145190	     -7.49999987	    -41.58385196	    -14.89819195	    -21.18409233	     70.51273497	     -1.22694965	     65.26621305	    123.11357042	     67.41774791	     87.96442292	    -16.46948252	     81.74037710	    130.11346185	     61.82018610
      6.11666670	    -19.00979997	     18.06352793	     12.42270424	      1.30768903	      0.73526258	     -0.03274577	     95.40578537	    -23.36388787	     17.57806190	     41.18928970	      0.71888872	     -8.72440950	      6.87546425	     -7.49999987	     74.61556942	     21.36089671	    -18.29390043	     80.88537544	      1.41171612	     27.58608231	     -5.12080869	     -7.49999987	    -41.45898749	    -14.61648813	    -21.04248542	     70.23978791	     -2.06894150	     65.35331260	    122.01485808	     67.45834168	     87.17851203	    -17.32209241	     82.70698449	    129.06727271	     61.91486505
      6.13333330	    -19.43002721	     18.02035147	     12.55965475	      1.30680057	      0.73023646	     -0.03338293	     95.95498491	    -23.32900805	     17.55581340	     41.28925673	      0.72063348	     -8.90737477	      6.95894040	     -7.49999987	     75.37611590	     21.23575866	    -18.46845790	     81.51316062	      1.42267304	     27.72308921	     -5.18918828	     -7.49999987	    -41.42574318	    -14.44121677	    -20.85869044	     70.57164367	     -1.93979940	     65.65464829	    122.08406501	     66.98573091	     86.74366688	    -18.39557196	     83.15858866	    129.42159391	     61.90712099
      6.15000000	    -19.67699726	     18.00980972	     12.63130940	      1.30696764	      0.72936270	     -0.03305153	     96.25224538	    -23.32687336	     17.48945105	     41.24273795	      0.71982157	     -9.02675258	      7.35587265	     -7.49999987	     75.86442430	     21.23531107	    -18.56285029	     81.96159405	      1.43049968	     27.88950535	     -5.27559458	     -7.49999987	    -41.45050307	    -14.28822667	    -21.14711593	     70.77024213	     -1.43381440	     66.99672238	    122.07235501	     66.81298068	     86.52626878	    -19.95199180	     84.53371939	    129.58162212	     61.94092110
      6.16666670	    -19.86603981	     17.87098490	     12.67738032	      1.30640277	      0.72645053	     -0.03305901	     96.38355130	    -23.36644547	     17.19430952	     41.10809604	      0.71747163	     -9.23613055	      7.78748985	     -7.49999987	     76.23725736	     21.20064809	    -18.48426362	     82.31757595	      1.43671273	     28.05240769	     -5.25538003	     -7.49999987	    -41.42584577	    -14.03866840	    -21.35842801	     71.24458241	     -1.21796105	     66.78213795	    122.25012196	     66.39660517	     86.54184552	    -19.90241063	     83.96074981	    129.79104667	     61.79518047
      6.18333330	    -20.06051951	     17.77810239	     12.74156178	      1.30717878	      0.72989133	     -0.03242299	     96.36478202	    -23.51202717	     16.81135513	     40.81602807	      0.71237408	     -9.15255019	      8.51115652	     -7.49999987	     76.39372389	     21.25013811	    -18.38991506	     82.42780787	      1.43863664	     28.29047445	     -5.17751790	     -7.49999987	    -41.47837922	    -13.75129696	    -21.54789917	     71.49521653	     -1.05482464	     67.00419161	    121.64298254	     65.95271389	     86.60617465	    -19.93778118	     84.40408873	    129.06127564	     61.62458751
      6.20000000	    -20.24462454	     17.75996610	     12.75299230	      1.30634693	      0.72576227	     -0.03294741	     96.34100299	    -23.56233288	     16.55172508	     40.55361881	      0.70779417	     -9.21817670	      8.91985968	     -7.49999987	     76.55509427	     21.28380605	    -18.37710962	     82.46153714	      1.43922533	     28.43521548	     -5.15113845	     -7.49999987	    -41.32152821	    -13.78507474	    -21.53797173	     71.84133044	     -0.42541914	     66.95555782	    121.88377857	     65.97916281	     86.84488968	    -19.64228279	     84.29842385	    129.17258163	     61.60199082
      6.21666670	    -20.31251127	     17.71345153	     12.59095608	      1.31149877	      0.72669228	     -0.02814491	     96.11443684	    -23.45971643	     16.30168295	     40.26356048	      0.70273170	     -9.14827551	      9.52291464	     -7.49999987	     76.47645402	     21.18938174	    -18.26865024	     82.53021269	      1.44042394	     28.66681587	     -5.02888649	     -7.49999987	    -41.28721598	    -13.85375928	    -21.32140599	     71.27433464	      0.00582342	     67.03502803	    121.93938724	     65.99632593	     86.52393850	    -19.71173266	     84.57799410	    129.48845166	     61.60412518
      6.23333330	    -20.55261497	     17.48299522	     12.48565495	      1.31060811	      0.72631538	     -0.02852114	     96.11100108	    -23.32134046	     15.95180144	     40.14309863	      0.70062924	     -8.96498806	     10.17744092	     -7.49999987	     76.64556481	     20.95427527	    -18.07740663	     82.74826395	      1.44422966	     29.10716276	     -4.64472061	     -7.49999987	    -40.97270165	    -13.71483312	    -20.97840360	     71.47551251	      0.39937836	     66.78519354	    122.17144503	     65.74308301	     86.19446962	    -19.74371902	     84.24636877	    130.06896335	     61.54394961
      6.25000000	    -20.77212863	     17.31544777	     12.44079276	      1.31090119	      0.72631669	     -0.02816251	     96.04278076	    -23.23504281	     15.73140561	     40.02322075	      0.69853698	     -8.64606502	     10.40982798	     -7.49999987	     76.69193991	     20.77648226	    -17.93101601	     82.82741388	      1.44561108	     29.50324406	     -4.26217158	     -7.49999987	    -40.72394178	    -13.57922447	    -20.80551412	     71.77207276	      0.88614948	     66.26364284	    122.76467684	     65.53421243	     86.18825474	    -19.61809790	     83.68458580	    130.58915352	     61.49365006
